<svg aria-hidden="true" style="width:0;height:0;position:absolute;overflow:hidden" xmlns="http://www.w3.org/2000/svg"><defs><symbol id="icon-search" viewBox="0 0 32 32"><path d="m31.008 27.231-7.58-6.447c-.784-.705-1.622-1.029-2.299-.998a11.954 11.954 0 0 0 2.87-7.787c0-6.627-5.373-12-12-12s-12 5.373-12 12 5.373 12 12 12c2.972 0 5.691-1.081 7.787-2.87-.031.677.293 1.515.998 2.299l6.447 7.58c1.104 1.226 2.907 1.33 4.007.23s.997-2.903-.23-4.007zM12 20a8 8 0 1 1 0-16 8 8 0 0 1 0 16z"/></symbol><symbol id="icon-left-arrow" viewBox="0 0 32 32"><path d="M14 9c0 .278-.116.555-.341.753L6.519 16l7.14 6.247a1 1 0 1 1-1.317 1.505l-8-7a1 1 0 0 1 0-1.506l8-7A1 1 0 0 1 14 8.998z"/></symbol><symbol id="icon-arrow" viewBox="0 0 32 32"><path d="M18 23c0-.278.116-.555.341-.753L25.481 16l-7.14-6.247a1 1 0 1 1 1.317-1.505l8 7a1 1 0 0 1 0 1.506l-8 7A1 1 0 0 1 18 23.002z"/></symbol></defs></svg>