<svg aria-hidden="true" style="position: absolute; width: 0; height: 0; overflow: hidden;" version="1.1" xmlns="http://www.w3.org/2000/svg" xmlns:xlink="http://www.w3.org/1999/xlink">
<defs>
<symbol id="icon-search" viewBox="0 0 32 32">
<path d="M31.008 27.231l-7.58-6.447c-0.784-0.705-1.622-1.029-2.299-0.998 1.789-2.096 2.87-4.815 2.87-7.787 0-6.627-5.373-12-12-12s-12 5.373-12 12 5.373 12 12 12c2.972 0 5.691-1.081 7.787-2.87-0.031 0.677 0.293 1.515 0.998 2.299l6.447 7.58c1.104 1.226 2.907 1.33 4.007 0.23s0.997-2.903-0.23-4.007zM12 20c-4.418 0-8-3.582-8-8s3.582-8 8-8 8 3.582 8 8-3.582 8-8 8z"></path>
</symbol>
<symbol id="icon-left-arrow" viewBox="0 0 32 32">
<path d="M14 9c0 0.278-0.116 0.555-0.341 0.753l-7.14 6.247 7.14 6.247c0.416 0.364 0.458 0.995 0.094 1.411s-0.995 0.458-1.411 0.094l-8-7c-0.217-0.19-0.341-0.464-0.341-0.753s0.125-0.563 0.341-0.753l8-7c0.416-0.364 1.047-0.322 1.411 0.094 0.166 0.19 0.247 0.424 0.247 0.658z"></path>
</symbol>
<symbol id="icon-arrow" viewBox="0 0 32 32">
<path d="M18 23c0-0.278 0.116-0.555 0.341-0.753l7.14-6.247-7.14-6.247c-0.416-0.364-0.458-0.995-0.094-1.411s0.995-0.458 1.411-0.094l8 7c0.217 0.19 0.341 0.464 0.341 0.753s-0.125 0.563-0.341 0.753l-8 7c-0.416 0.364-1.047 0.322-1.411-0.094-0.166-0.19-0.247-0.424-0.247-0.658z"></path>
</symbol>
</defs>
</svg>
